<svg width="315" height="247" viewBox="0 0 315 247" fill="none" xmlns="http://www.w3.org/2000/svg">
    <path d="M29.5312 19.7H19.6875V29.5499H29.5312V19.7Z" fill="#EB2A52"/>
    <path d="M49.2188 19.7H39.375V29.5499H49.2188V19.7Z" fill="#EB2A52"/>
    <path d="M68.9062 19.7H59.0625V29.5499H68.9062V19.7Z" fill="#EB2A52"/>
    <path d="M142.616 189.578L147.164 173.114L158.612 184.57L165.576 177.606L130.749 142.761L123.809 149.72L135.253 161.176L118.804 165.746C118.097 165.943 117.442 166.295 116.889 166.777C116.335 167.26 115.896 167.86 115.605 168.534L101.951 199.955C101.558 200.862 101.447 201.866 101.632 202.837C101.817 203.807 102.289 204.7 102.988 205.399C103.686 206.097 104.579 206.569 105.549 206.753C106.519 206.938 107.523 206.826 108.428 206.432L139.835 192.77C140.506 192.478 141.105 192.04 141.586 191.488C142.067 190.936 142.419 190.284 142.616 189.578ZM133.756 184.683L115.959 192.42L123.696 174.616L137.625 170.745L133.756 184.683Z" fill="#F8DB66"/>
    <path d="M149.374 152.626L203.274 98.7216L209.628 105.08L155.728 158.984L162.693 165.973L220.042 108.562C220.965 107.638 221.483 106.386 221.483 105.08C221.483 103.774 220.965 102.521 220.042 101.598L206.719 88.2757C205.796 87.3524 204.544 86.8337 203.239 86.8337C201.934 86.8337 200.682 87.3524 199.759 88.2757L142.415 145.662L149.374 152.626Z" fill="#F8DB66"/>
    <path d="M182.109 206.85H127.969V216.7H182.109V206.85Z" fill="#C3E9BF"/>
    <path d="M201.797 206.85H191.953V216.7H201.797V206.85Z" fill="#C3E9BF"/>
    <path d="M236.25 98.5C234.426 98.5004 232.604 98.6007 230.792 98.8004L231.865 108.591C233.321 108.431 234.785 108.351 236.25 108.35C243.662 108.35 250.924 110.444 257.2 114.39C263.476 118.336 268.511 123.975 271.727 130.658C274.942 137.34 276.207 144.796 275.377 152.166C274.546 159.536 271.653 166.522 267.031 172.32C262.408 178.118 256.244 182.493 249.248 184.941C242.251 187.39 234.706 187.812 227.48 186.16C220.254 184.508 213.64 180.849 208.401 175.603C203.161 170.357 199.507 163.738 197.859 156.507L188.257 158.693C190.316 167.733 194.882 176.007 201.432 182.565C207.981 189.122 216.248 193.697 225.28 195.762C234.312 197.828 243.744 197.3 252.49 194.24C261.236 191.18 268.941 185.712 274.719 178.465C280.498 171.218 284.114 162.486 285.153 153.273C286.192 144.061 284.612 134.742 280.593 126.388C276.574 118.035 270.281 110.986 262.436 106.052C254.592 101.119 245.515 98.5009 236.25 98.5Z" fill="#C3E9BF"/>
    <path d="M118.125 132.975H39.375V78.8H137.812V128.754H147.656V73.875C147.656 72.5688 147.138 71.3161 146.215 70.3924C145.292 69.4688 144.04 68.95 142.734 68.95H34.4531C33.1478 68.95 31.8959 69.4688 30.9728 70.3924C30.0498 71.3161 29.5312 72.5688 29.5312 73.875V137.9C29.5312 139.206 30.0498 140.459 30.9728 141.382C31.8959 142.306 33.1478 142.825 34.4531 142.825H118.125V132.975Z" fill="#C3E9BF"/>
    <path d="M96.2374 191.583L100.638 182.767L51.4188 158.142C50.6701 157.767 49.8384 157.59 49.0022 157.627C48.166 157.664 47.3531 157.914 46.6401 158.352C45.9272 158.791 45.3379 159.405 44.9279 160.135C44.5178 160.865 44.3007 161.688 44.2969 162.525V211.775C44.2969 213.081 44.8154 214.334 45.7385 215.258C46.6615 216.181 47.9134 216.7 49.2188 216.7H98.4375V206.85H54.1406V170.494L96.2374 191.583Z" fill="#C3E9BF"/>
    <path d="M292.591 0H22.4093C16.468 0.00651803 10.7719 2.37108 6.57073 6.5749C2.36958 10.7787 0.00651389 16.4784 0 22.4235L0 223.826C0.00651389 229.772 2.36958 235.471 6.57073 239.675C10.7719 243.879 16.468 246.243 22.4093 246.25H292.591C298.532 246.243 304.228 243.879 308.429 239.675C312.63 235.471 314.993 229.772 315 223.826V22.4235C314.993 16.4784 312.63 10.7787 308.429 6.5749C304.228 2.37108 298.532 0.00651803 292.591 0ZM292.591 236.4H22.4093C19.0783 236.395 15.8852 235.068 13.5299 232.712C11.1745 230.355 9.84896 227.16 9.84375 223.826V49.25H255.938V39.4H9.84375V22.4235C9.84896 19.0904 11.1745 15.8953 13.5299 13.5385C15.8852 11.1816 19.0783 9.85521 22.4093 9.85H292.591C295.922 9.85521 299.115 11.1816 301.47 13.5385C303.826 15.8953 305.151 19.0904 305.156 22.4235V39.4H275.625V49.25H305.156V223.826C305.151 227.16 303.826 230.355 301.47 232.712C299.115 235.068 295.922 236.395 292.591 236.4Z" fill="#EB2A52"/>
</svg>
