<svg width="316" height="316" viewBox="0 0 316 316" fill="none" xmlns="http://www.w3.org/2000/svg">
    <path d="M158 300.195C171.541 300.195 184.779 296.18 196.038 288.656C207.297 281.133 216.073 270.44 221.255 257.929C226.437 245.419 227.793 231.652 225.151 218.371C222.509 205.09 215.989 192.89 206.413 183.315C196.838 173.74 184.638 167.219 171.357 164.577C158.076 161.935 144.31 163.291 131.799 168.473C119.288 173.655 108.595 182.431 101.072 193.69C93.5487 204.949 89.5332 218.187 89.5332 231.728C89.5541 249.88 96.7743 267.283 109.61 280.118C122.445 292.954 139.848 300.174 158 300.195ZM115.256 270.702C120.165 268.715 125.248 267.188 130.439 266.141C132.131 273.176 134.825 279.932 138.44 286.201C129.567 282.996 121.609 277.676 115.256 270.702ZM158 173.795C164.236 173.795 170.935 183.543 175.064 198.991C163.728 200.344 152.272 200.344 140.936 198.991C145.065 183.543 151.764 173.795 158 173.795ZM158 289.662C151.764 289.662 145.065 279.913 140.936 264.466C152.272 263.112 163.728 263.112 175.064 264.466C170.935 279.913 164.236 289.662 158 289.662ZM178.956 236.995C178.761 242.738 178.199 248.462 177.271 254.133C164.474 252.521 151.526 252.521 138.729 254.133C137.801 248.462 137.238 242.738 137.044 236.995H178.956ZM137.044 226.462C137.239 220.719 137.802 214.994 138.729 209.324C151.514 211.107 164.485 211.107 177.271 209.324C178.198 214.994 178.761 220.719 178.956 226.462H137.044ZM189.484 236.995H215.665C214.852 245.908 211.966 254.507 207.238 262.106C200.978 259.292 194.422 257.186 187.693 255.829C188.698 249.596 189.296 243.305 189.484 236.995ZM189.484 226.462C189.296 220.152 188.698 213.86 187.693 207.628C194.422 206.27 200.978 204.164 207.238 201.35C211.966 208.949 214.852 217.549 215.665 226.462H189.484ZM126.516 226.462H100.335C101.148 217.549 104.034 208.949 108.762 201.35C115.022 204.164 121.578 206.27 128.306 207.628C127.302 213.86 126.704 220.152 126.516 226.462ZM126.516 236.995C126.704 243.305 127.302 249.596 128.306 255.829C121.578 257.186 115.022 259.292 108.762 262.106C104.034 254.507 101.148 245.908 100.335 236.995H126.516ZM177.56 286.191C181.175 279.922 183.869 273.166 185.56 266.13C190.752 267.178 195.835 268.705 200.744 270.691C194.391 277.665 186.433 282.985 177.56 286.191ZM200.734 192.765C195.824 194.752 190.741 196.279 185.55 197.326C183.858 190.291 181.164 183.535 177.55 177.266C186.425 180.467 194.387 185.783 200.744 192.755L200.734 192.765ZM138.429 177.266C134.815 183.535 132.121 190.291 130.429 197.326C125.238 196.279 120.155 194.752 115.245 192.765C121.602 185.79 129.563 180.47 138.44 177.266H138.429Z" fill="#C3E9BF"/>
    <path d="M79.0001 131.662H68.4668V142.195H79.0001V131.662Z" fill="#F8DB66"/>
    <path d="M100.067 131.662H89.5332V142.195H100.067V131.662Z" fill="#F8DB66"/>
    <path d="M121.133 131.662H110.6V142.195H121.133V131.662Z" fill="#F8DB66"/>
    <path d="M316 157.995C315.98 142.091 309.973 126.778 299.175 115.103C288.376 103.427 273.578 96.2444 257.724 94.9846C256.755 87.8585 253.713 81.1747 248.974 75.7649C244.236 70.3551 238.011 66.4581 231.075 64.559C229.166 49.2389 222.493 34.9056 211.997 23.5838C201.501 12.2619 187.713 4.52389 172.581 1.46269C157.45 -1.59851 141.738 0.171865 127.667 6.52373C113.596 12.8756 101.876 23.4879 94.1625 36.8615C78.3916 36.9768 63.2388 43.009 51.7035 53.764C40.1682 64.519 33.0912 79.213 31.8735 94.9372C20.8789 101.879 12.0915 111.811 6.54159 123.57C0.991723 135.328 -1.09045 148.425 0.539253 161.325C2.16895 174.225 7.44296 186.393 15.7428 196.402C24.0426 206.411 35.0242 213.846 47.3997 217.835V300.195C47.3997 304.386 49.0643 308.404 52.0274 311.367C54.9905 314.331 59.0093 315.995 63.1997 315.995H252.8C256.99 315.995 261.009 314.331 263.972 311.367C266.935 308.404 268.6 304.386 268.6 300.195V219.167C282.168 215.675 294.189 207.769 302.771 196.695C311.352 185.62 316.006 172.005 316 157.995ZM258.067 300.195C258.067 301.592 257.512 302.932 256.524 303.919C255.536 304.907 254.197 305.462 252.8 305.462H63.1997C61.8029 305.462 60.4633 304.907 59.4756 303.919C58.4879 302.932 57.933 301.592 57.933 300.195V157.995H258.067V300.195ZM258.067 147.462H57.933V131.662C57.933 130.265 58.4879 128.925 59.4756 127.938C60.4633 126.95 61.8029 126.395 63.1997 126.395H252.8C254.197 126.395 255.536 126.95 256.524 127.938C257.512 128.925 258.067 130.265 258.067 131.662V147.462ZM268.6 208.213V131.662C268.6 127.471 266.935 123.452 263.972 120.489C261.009 117.526 256.99 115.862 252.8 115.862H63.1997C59.0093 115.862 54.9905 117.526 52.0274 120.489C49.0643 123.452 47.3997 127.471 47.3997 131.662V206.659C37.2263 202.699 28.3811 195.941 21.8865 187.166C15.3918 178.391 11.5127 167.957 10.6975 157.07C9.88224 146.184 12.1642 135.289 17.2795 125.644C22.3949 116 30.1349 108 39.605 102.569C40.3784 102.123 41.0258 101.488 41.4865 100.723C41.9471 99.9585 42.2058 99.0893 42.2383 98.1972C42.6686 84.5554 48.3989 71.6184 58.2128 62.133C68.0266 52.6476 81.1511 47.3607 94.7997 47.3949C95.1105 47.3949 95.4054 47.3949 95.7056 47.437C96.8957 47.6332 98.1172 47.4747 99.2177 46.9811C100.318 46.4875 101.249 45.6807 101.894 44.6615C108.225 32.4432 118.375 22.6283 130.799 16.7108C143.223 10.7932 157.24 9.09716 170.717 11.8808C184.194 14.6644 196.392 21.7752 205.455 32.1308C214.517 42.4863 219.948 55.5195 220.921 69.2463C221.003 70.4327 221.485 71.5563 222.287 72.4342C223.089 73.312 224.165 73.8925 225.339 74.0811C231.534 75.0432 237.179 78.1929 241.25 82.9592C245.322 87.7255 247.551 93.793 247.533 100.062C247.533 101.458 248.088 102.798 249.076 103.786C250.064 104.773 251.403 105.328 252.8 105.328C265.37 105.346 277.519 109.859 287.053 118.051C296.586 126.244 302.875 137.576 304.783 150.001C306.691 162.425 304.093 175.122 297.457 185.798C290.821 196.474 280.586 204.424 268.6 208.213Z" fill="#EB2A52"/>
</svg>
